<?xml version="1.0" encoding="UTF-8" standalone="no"?>
<!-- Created with Inkscape (http://www.inkscape.org/) -->

<svg
   xmlns:dc="http://purl.org/dc/elements/1.1/"
   xmlns:cc="http://creativecommons.org/ns#"
   xmlns:rdf="http://www.w3.org/1999/02/22-rdf-syntax-ns#"
   xmlns:svg="http://www.w3.org/2000/svg"
   xmlns="http://www.w3.org/2000/svg"
   xmlns:sodipodi="http://sodipodi.sourceforge.net/DTD/sodipodi-0.dtd"
   xmlns:inkscape="http://www.inkscape.org/namespaces/inkscape"
   width="256"
   height="256"
   viewBox="0 0 67.733331 67.733331"
   version="1.1"
   id="svg8"
   inkscape:version="0.92.3 (2405546, 2018-03-11)"
   sodipodi:docname="404.svg"
   inkscape:export-filename="C:\Users\AxelB\OneDrive\Documents\École\2018 - Hiver\Web Back-End\GestionReunion\gestion-reunion\source\app\public\images\404.png"
   inkscape:export-xdpi="120.00001"
   inkscape:export-ydpi="120.00001">
  <defs
     id="defs2" />
  <sodipodi:namedview
     id="base"
     pagecolor="#ffffff"
     bordercolor="#666666"
     borderopacity="1.0"
     inkscape:pageopacity="0.0"
     inkscape:pageshadow="2"
     inkscape:zoom="1.4142136"
     inkscape:cx="133.55258"
     inkscape:cy="166.57068"
     inkscape:document-units="mm"
     inkscape:current-layer="layer1"
     showgrid="false"
     inkscape:snap-bbox="true"
     inkscape:bbox-paths="true"
     inkscape:snap-bbox-edge-midpoints="true"
     inkscape:snap-bbox-midpoints="true"
     inkscape:bbox-nodes="true"
     inkscape:object-paths="true"
     inkscape:snap-intersection-paths="true"
     inkscape:snap-global="false"
     units="px"
     inkscape:window-width="756"
     inkscape:window-height="405"
     inkscape:window-x="2646"
     inkscape:window-y="172"
     inkscape:window-maximized="0"
     inkscape:pagecheckerboard="true"
     inkscape:showpageshadow="false" />
  <metadata
     id="metadata5">
    <rdf:RDF>
      <cc:Work
         rdf:about="">
        <dc:format>image/svg+xml</dc:format>
        <dc:type
           rdf:resource="http://purl.org/dc/dcmitype/StillImage" />
        <dc:title></dc:title>
      </cc:Work>
    </rdf:RDF>
  </metadata>
  <g
     inkscape:label="Calque 1"
     inkscape:groupmode="layer"
     id="layer1"
     transform="translate(0,-229.26668)">
    <path
       style="fill:#343a40;fill-opacity:1;stroke-width:0.16072309"
       d="M 33.866667,229.26662 A 33.866646,33.866646 0 0 0 0,263.13329 33.866646,33.866646 0 0 0 33.866667,296.99995 33.866646,33.866646 0 0 0 67.733333,263.13329 33.866646,33.866646 0 0 0 33.866667,229.26662 Z m 0,5.54739 A 28.319251,28.319251 0 0 1 62.185936,263.13329 28.319251,28.319251 0 0 1 33.866667,291.45255 28.319251,28.319251 0 0 1 5.547396,263.13329 28.319251,28.319251 0 0 1 33.866667,234.81401 Z"
       id="path856"
       inkscape:connector-curvature="0" />
    <circle
       style="fill:#343a40;fill-opacity:1;stroke-width:0.15849704"
       id="path828"
       cx="22.529221"
       cy="251.78587"
       r="5.625349" />
    <circle
       r="5.625349"
       cy="251.78587"
       cx="45.184242"
       id="circle854"
       style="fill:#343a40;fill-opacity:1;stroke-width:0.15849704" />
    <path
       style="fill:#343a40;fill-opacity:1;stroke-width:0.15849701"
       d="m 33.850569,265.85312 c -7.603037,-10e-5 -14.036068,5.00898 -16.179079,11.9071 l 0.0047,0.002 a 2.8131978,2.8131978 0 0 0 -0.138685,0.86679 2.8131978,2.8131978 0 0 0 2.813323,2.81333 2.8131978,2.8131978 0 0 0 2.677113,-1.95305 l 9.52e-4,3.1e-4 c 0.0028,-0.009 0.0059,-0.0179 0.0087,-0.0269 2.3e-4,-5.3e-4 6.88e-4,-0.002 9.52e-4,-0.002 a 2.8131978,2.8131978 0 0 0 3.09e-4,-10e-4 c 1.422651,-4.62029 5.724834,-7.97846 10.811851,-7.97842 5.095856,10e-5 9.404634,3.36981 10.819589,8.00255 l 0.0047,-0.002 a 2.8131978,2.8131978 0 0 0 2.675566,1.95522 2.8131978,2.8131978 0 0 0 2.813322,-2.81302 2.8131978,2.8131978 0 0 0 -0.128779,-0.83056 l 0.0043,-0.001 C 47.90608,270.87755 41.465046,265.85316 33.850569,265.85312 Z"
       id="path876"
       inkscape:connector-curvature="0" />
  </g>
</svg>
